# xmcd
#
# Track frame offsets: 
#        150
#        14115
#        27834
#        47912
#        62861
#        76606
#        86128
#        97443
#        114769
#        130876
#        143136
#        154154
#        169412
#        179825
#        191777
#
# Disc length: 2726 seconds
#
# Revision: 0
# Processed by: cddbd v1.5.2PL0 Copyright (c) Steve Scherf et al.
# Submitted via: ExactAudioCopy v0.99pb3
#
DISCID=da0aa40f
DTITLE=Various Artist - Super Blues Vol1
DYEAR=2000
DGENRE=Blues
TTITLE0=Junior Wells - She's a Sweet One
TTITLE1=Sunnyland Slim - Highway 61
TTITLE2=Otis Spann - Country Boy Blues
TTITLE3=Jimmy Reed - Can't Stand to Leave
TTITLE4=Big Bill Broonzy - Key to the Highway
TTITLE5=Big Joe Williams - Baby, Please Don't Go
TTITLE6=Otis Rush - Violent Love
TTITLE7=Fenton Robinson - Somebody Loan Me a Dime
TTITLE8=Magic Slim - Easy Baby
TTITLE9=Earl Hooker - Blue Guitar
TTITLE10=Harold Burrage - I Don't Care Who Knows
TTITLE11=Willie Mason - I'm the Fixer
TTITLE12=Betty Everett - My Love
TTITLE13=Lee Jackson - Fishin' in my Pond
TTITLE14=Jesse Fortune - Too Many Cooks
EXTD=
EXTT0=
EXTT1=
EXTT2=
EXTT3=
EXTT4=
EXTT5=
EXTT6=
EXTT7=
EXTT8=
EXTT9=
EXTT10=
EXTT11=
EXTT12=
EXTT13=
EXTT14=
PLAYORDER=
